G04 Layer_Color=15132400*
%FSLAX25Y25*%
%MOIN*%
G70*
G01*
G75*
%ADD24C,0.01000*%
%ADD32C,0.00500*%
%ADD33C,0.00984*%
%ADD34C,0.02362*%
%ADD35C,0.00787*%
%ADD36C,0.00394*%
%ADD37C,0.01575*%
%ADD38C,0.01500*%
G36*
X332000Y381500D02*
X327000Y384000D01*
X332000Y386500D01*
Y381500D01*
D02*
G37*
D24*
X323000Y380500D02*
G03*
X323000Y380500I-500J0D01*
G01*
X213999Y267998D02*
X212999Y268998D01*
X211000D01*
X210000Y267998D01*
Y264000D01*
X211000Y263000D01*
X212999D01*
X213999Y264000D01*
X215998Y268998D02*
Y263000D01*
Y265999D01*
X219997D01*
Y268998D01*
Y263000D01*
X221996D02*
X223995D01*
X222996D01*
Y268998D01*
X221996Y267998D01*
X355499D02*
X354499Y268998D01*
X352500D01*
X351500Y267998D01*
Y264000D01*
X352500Y263000D01*
X354499D01*
X355499Y264000D01*
X357498Y268998D02*
Y263000D01*
Y265999D01*
X361497D01*
Y268998D01*
Y263000D01*
X367495D02*
X363496D01*
X367495Y266999D01*
Y267998D01*
X366495Y268998D01*
X364496D01*
X363496Y267998D01*
X356499Y490998D02*
X355499Y491998D01*
X353500D01*
X352500Y490998D01*
Y487000D01*
X353500Y486000D01*
X355499D01*
X356499Y487000D01*
X358498Y491998D02*
Y486000D01*
Y488999D01*
X362497D01*
Y491998D01*
Y486000D01*
X367495D02*
Y491998D01*
X364496Y488999D01*
X368495D01*
X215499Y489998D02*
X214499Y490998D01*
X212500D01*
X211500Y489998D01*
Y486000D01*
X212500Y485000D01*
X214499D01*
X215499Y486000D01*
X217498Y490998D02*
Y485000D01*
Y487999D01*
X221497D01*
Y490998D01*
Y485000D01*
X223496Y489998D02*
X224496Y490998D01*
X226495D01*
X227495Y489998D01*
Y488999D01*
X226495Y487999D01*
X225496D01*
X226495D01*
X227495Y486999D01*
Y486000D01*
X226495Y485000D01*
X224496D01*
X223496Y486000D01*
X175000Y255500D02*
X400500D01*
X403500D01*
Y511500D01*
X175500D02*
X403500D01*
X175000Y255500D02*
X175500Y511500D01*
D32*
X279821Y498289D02*
G03*
X276081Y494549I0J-3740D01*
G01*
Y488250D02*
G03*
X279821Y484510I3740J0D01*
G01*
X299899D02*
G03*
X303640Y488250I0J3740D01*
G01*
Y494549D02*
G03*
X299899Y498289I-3740J0D01*
G01*
X301671Y494549D02*
G03*
X299899Y496321I-1772J0D01*
G01*
Y486478D02*
G03*
X301671Y488250I0J1772D01*
G01*
X278049D02*
G03*
X279821Y486478I1772J0D01*
G01*
Y496321D02*
G03*
X278049Y494549I0J-1772D01*
G01*
X276081Y488250D02*
Y494549D01*
X279821Y484510D02*
X299899D01*
X303640Y488250D02*
Y494549D01*
X296553Y498289D02*
X299899D01*
X279821D02*
X283167D01*
Y496321D02*
Y498289D01*
X296553Y496321D02*
Y498289D01*
Y496321D02*
X299899D01*
X301671Y488250D02*
Y494549D01*
X279821Y486478D02*
X299899D01*
X279821Y496321D02*
X283167D01*
X278049Y488250D02*
Y494549D01*
X281002Y488644D02*
Y491006D01*
X298718D01*
Y488644D02*
Y491006D01*
X281002Y488644D02*
X298718D01*
X289860Y498289D02*
Y499601D01*
Y498945D01*
X285924D01*
X286580Y498289D01*
X289860Y501569D02*
X289204D01*
Y502225D01*
X289860D01*
Y501569D01*
Y507473D02*
Y504849D01*
X287236Y507473D01*
X286580D01*
X285924Y506817D01*
Y505505D01*
X286580Y504849D01*
D33*
X327524Y466516D02*
G03*
X327524Y466516I-492J0D01*
G01*
X328520Y378890D02*
G03*
X328520Y378890I-492J0D01*
G01*
X273524Y466516D02*
G03*
X273524Y466516I-492J0D01*
G01*
X219961Y364484D02*
G03*
X219961Y364484I-492J0D01*
G01*
X305961Y291984D02*
G03*
X305961Y291984I-492J0D01*
G01*
X297102Y372134D02*
G03*
X297102Y372134I-492J0D01*
G01*
X253961Y291984D02*
G03*
X253961Y291984I-492J0D01*
G01*
X343216Y450779D02*
G03*
X343216Y450779I-492J0D01*
G01*
X236768D02*
G03*
X236768Y450779I-492J0D01*
G01*
X342717Y307221D02*
G03*
X342717Y307221I-492J0D01*
G01*
X237768Y334780D02*
G03*
X237768Y334780I-492J0D01*
G01*
X265984Y364114D02*
G03*
X265984Y364114I-492J0D01*
G01*
D34*
X323783Y457362D02*
G03*
X323783Y457362I-1181J0D01*
G01*
X269783D02*
G03*
X269783Y457362I-1181J0D01*
G01*
X225079Y373638D02*
G03*
X225079Y373638I-1181J0D01*
G01*
X311079Y301138D02*
G03*
X311079Y301138I-1181J0D01*
G01*
X259079D02*
G03*
X259079Y301138I-1181J0D01*
G01*
X269823Y373169D02*
G03*
X269823Y373169I-1181J0D01*
G01*
D35*
X306461Y461299D02*
X326539D01*
X306461Y448701D02*
X326539D01*
Y461299D01*
X306461Y448701D02*
Y461299D01*
X332555Y365701D02*
Y378299D01*
X339445Y365701D02*
Y378299D01*
X332555D02*
X339445D01*
X332555Y365701D02*
X339445D01*
X252461Y461299D02*
X272539D01*
X252461Y448701D02*
X272539D01*
Y461299D01*
X252461Y448701D02*
Y461299D01*
X219961Y369701D02*
X240039D01*
X219961Y382299D02*
X240039D01*
X219961Y369701D02*
Y382299D01*
X240039Y369701D02*
Y382299D01*
X305961Y297201D02*
X326039D01*
X305961Y309799D02*
X326039D01*
X305961Y297201D02*
Y309799D01*
X326039Y297201D02*
Y309799D01*
X309799Y377842D02*
Y383157D01*
X297201Y377842D02*
Y383157D01*
X309799D01*
X297201Y377842D02*
X309799D01*
X253961Y297201D02*
X274039D01*
X253961Y309799D02*
X274039D01*
X253961Y297201D02*
Y309799D01*
X274039Y297201D02*
Y309799D01*
X372130Y466528D02*
X375284D01*
X345284D02*
X359539D01*
X345284Y407472D02*
Y466528D01*
X375284Y407472D02*
Y466528D01*
X345284Y407472D02*
X359539D01*
X372130D02*
X375284D01*
X203716Y466528D02*
X206870D01*
X219461D02*
X233717D01*
Y407472D02*
Y466528D01*
X203716Y407472D02*
Y466528D01*
X219461Y407472D02*
X233717D01*
X203716D02*
X206870D01*
X371630Y291472D02*
X374783D01*
X344783D02*
X359039D01*
X344783D02*
Y350528D01*
X374783Y291472D02*
Y350528D01*
X344783D02*
X359039D01*
X371630D02*
X374783D01*
X204716D02*
X207870D01*
X220461D02*
X234717D01*
Y291472D02*
Y350528D01*
X204716Y291472D02*
Y350528D01*
X220461Y291472D02*
X234717D01*
X204716D02*
X207870D01*
X327000Y384000D02*
X332000Y381500D01*
Y386500D01*
X327000Y384000D02*
X332000Y386500D01*
X336563Y462520D02*
Y477480D01*
X344437D01*
Y462520D02*
Y477480D01*
X336563Y462520D02*
X344437D01*
X346063Y378020D02*
Y392980D01*
Y378020D02*
X353937D01*
Y392980D01*
X346063D02*
X353937D01*
X350063Y361020D02*
Y375980D01*
Y361020D02*
X357937D01*
Y375980D01*
X350063D02*
X357937D01*
X243437Y463020D02*
Y477980D01*
X235563D02*
X243437D01*
X235563Y463020D02*
Y477980D01*
Y463020D02*
X243437D01*
X224020Y403437D02*
X238980D01*
X224020Y395563D02*
Y403437D01*
Y395563D02*
X238980D01*
Y403437D01*
X280520D02*
X295480D01*
Y395563D02*
Y403437D01*
X280520Y395563D02*
X295480D01*
X280520D02*
Y403437D01*
X336563Y277520D02*
Y292480D01*
Y277520D02*
X344437D01*
Y292480D01*
X336563D02*
X344437D01*
X385020Y307063D02*
X399980D01*
Y314937D01*
X385020D02*
X399980D01*
X385020Y307063D02*
Y314937D01*
X299055Y443039D02*
Y472961D01*
X280945Y443039D02*
Y472961D01*
X296595D02*
X299055D01*
X296595Y443039D02*
X299055D01*
X280945Y472961D02*
X283405D01*
X280945Y443039D02*
X283405D01*
X301020Y395563D02*
X315980D01*
Y403437D01*
X301020D02*
X315980D01*
X301020Y395563D02*
Y403437D01*
X297563Y344520D02*
Y359480D01*
Y344520D02*
X305437D01*
Y359480D01*
X297563D02*
X305437D01*
X235063Y278020D02*
Y292980D01*
Y278020D02*
X242937D01*
Y292980D01*
X235063D02*
X242937D01*
X264705Y369232D02*
X290295D01*
X264705Y385768D02*
X290295D01*
X264705Y369232D02*
Y385768D01*
X290295Y369232D02*
Y385768D01*
D36*
X345744Y473181D02*
Y476921D01*
X351256D01*
Y473181D02*
Y476921D01*
X345744Y467669D02*
Y470819D01*
Y467669D02*
X346335Y467079D01*
X350665D01*
X351256Y467669D01*
Y470819D01*
X348106Y477709D02*
X348894D01*
X348500Y477315D02*
Y478102D01*
X232256Y473181D02*
Y476921D01*
X226744D02*
X232256D01*
X226744Y473181D02*
Y476921D01*
X232256Y467669D02*
Y470819D01*
X231665Y467079D02*
X232256Y467669D01*
X227335Y467079D02*
X231665D01*
X226744Y467669D02*
X227335Y467079D01*
X226744Y467669D02*
Y470819D01*
X229106Y477709D02*
X229894D01*
X229500Y477315D02*
Y478102D01*
X282079Y403744D02*
X285819D01*
X282079D02*
Y409256D01*
X285819D01*
X288181Y403744D02*
X291331D01*
X291921Y404335D01*
Y408665D01*
X291331Y409256D02*
X291921Y408665D01*
X288181Y409256D02*
X291331D01*
X281291Y406106D02*
Y406894D01*
X280898Y406500D02*
X281685D01*
X350244Y279079D02*
Y282819D01*
Y279079D02*
X355756D01*
Y282819D01*
X350244Y285181D02*
Y288331D01*
X350835Y288921D01*
X355165D01*
X355756Y288331D01*
Y285181D02*
Y288331D01*
X352606Y278291D02*
X353394D01*
X353000Y277898D02*
Y278685D01*
X394681Y293244D02*
X398421D01*
Y298756D01*
X394681D02*
X398421D01*
X389169Y293244D02*
X392319D01*
X388579Y293835D02*
X389169Y293244D01*
X388579Y293835D02*
Y298165D01*
X389169Y298756D01*
X392319D01*
X399209Y295606D02*
Y296394D01*
X398815Y296000D02*
X399602D01*
X312256Y354681D02*
Y358421D01*
X306744D02*
X312256D01*
X306744Y354681D02*
Y358421D01*
X312256Y349169D02*
Y352319D01*
X311665Y348579D02*
X312256Y349169D01*
X307335Y348579D02*
X311665D01*
X306744Y349169D02*
X307335Y348579D01*
X306744Y349169D02*
Y352319D01*
X309106Y359209D02*
X309894D01*
X309500Y358815D02*
Y359602D01*
X225244Y279579D02*
Y283319D01*
Y279579D02*
X230756D01*
Y283319D01*
X225244Y285681D02*
Y288831D01*
X225835Y289421D01*
X230165D01*
X230756Y288831D01*
Y285681D02*
Y288831D01*
X227606Y278791D02*
X228394D01*
X228000Y278398D02*
Y279185D01*
D37*
X280945Y478078D02*
X299055D01*
D38*
X266332Y270164D02*
X264999Y271497D01*
X262333D01*
X261000Y270164D01*
Y264833D01*
X262333Y263500D01*
X264999D01*
X266332Y264833D01*
X270330Y263500D02*
X272996D01*
X274329Y264833D01*
Y267499D01*
X272996Y268832D01*
X270330D01*
X268997Y267499D01*
Y264833D01*
X270330Y263500D01*
X276995D02*
Y268832D01*
X280994D01*
X282326Y267499D01*
Y263500D01*
X290324Y271497D02*
Y263500D01*
X286325D01*
X284992Y264833D01*
Y267499D01*
X286325Y268832D01*
X290324D01*
X292990D02*
Y264833D01*
X294322Y263500D01*
X298321D01*
Y268832D01*
X300987Y263500D02*
X303653D01*
X302320D01*
Y268832D01*
X300987D01*
X307652Y263500D02*
Y268832D01*
X311650D01*
X312983Y267499D01*
Y263500D01*
X316982D02*
X319648D01*
X320981Y264833D01*
Y267499D01*
X319648Y268832D01*
X316982D01*
X315649Y267499D01*
Y264833D01*
X316982Y263500D01*
M02*
