G04 Layer_Color=128*
%FSLAX25Y25*%
%MOIN*%
G70*
G01*
G75*
%ADD24C,0.01000*%
%ADD32C,0.00500*%
D24*
X175000Y255500D02*
X400500D01*
X403500D01*
Y511500D01*
X175500D02*
X403500D01*
X175000Y255500D02*
X175500Y511500D01*
D32*
X353197Y440937D02*
X357134D01*
X355165Y438969D02*
Y442906D01*
X353197Y423220D02*
X357134D01*
X355165Y421252D02*
Y425189D01*
X353197Y450779D02*
X357134D01*
X355165Y448811D02*
Y452748D01*
X353197Y433063D02*
X357134D01*
X355165Y431095D02*
Y435032D01*
X361150Y462866D02*
X370520D01*
X365835Y458181D02*
Y467551D01*
X361150Y411134D02*
X370520D01*
X365835Y406449D02*
Y415819D01*
X221866Y440937D02*
X225803D01*
X223835Y438969D02*
Y442906D01*
X221866Y423220D02*
X225803D01*
X223835Y421252D02*
Y425189D01*
X221866Y450779D02*
X225803D01*
X223835Y448811D02*
Y452748D01*
X221866Y433063D02*
X225803D01*
X223835Y431095D02*
Y435032D01*
X208480Y462866D02*
X217850D01*
X213165Y458181D02*
Y467551D01*
X208480Y411134D02*
X217850D01*
X213165Y406449D02*
Y415819D01*
X352697Y317063D02*
X356634D01*
X354665Y315094D02*
Y319032D01*
X352697Y334780D02*
X356634D01*
X354665Y332811D02*
Y336748D01*
X352697Y307221D02*
X356634D01*
X354665Y305252D02*
Y309189D01*
X352697Y324937D02*
X356634D01*
X354665Y322969D02*
Y326905D01*
X360650Y295134D02*
X370020D01*
X365335Y290449D02*
Y299819D01*
X360650Y346866D02*
X370020D01*
X365335Y342181D02*
Y351551D01*
X222866Y324937D02*
X226803D01*
X224835Y322969D02*
Y326905D01*
X222866Y307221D02*
X226803D01*
X224835Y305252D02*
Y309189D01*
X222866Y334780D02*
X226803D01*
X224835Y332811D02*
Y336748D01*
X222866Y317063D02*
X226803D01*
X224835Y315094D02*
Y319032D01*
X209480Y346866D02*
X218850D01*
X214165Y342181D02*
Y351551D01*
X209480Y295134D02*
X218850D01*
X214165Y290449D02*
Y299819D01*
X193032Y472500D02*
X196968D01*
X195000Y470532D02*
Y474469D01*
X193032Y346500D02*
X196968D01*
X195000Y344531D02*
Y348468D01*
X193032Y336500D02*
X196968D01*
X195000Y334531D02*
Y338469D01*
X193032Y326500D02*
X196968D01*
X195000Y324532D02*
Y328468D01*
X193032Y316500D02*
X196968D01*
X195000Y314531D02*
Y318468D01*
X193032Y306500D02*
X196968D01*
X195000Y304532D02*
Y308469D01*
X193032Y296500D02*
X196968D01*
X195000Y294531D02*
Y298468D01*
X193032Y356500D02*
X196968D01*
X195000Y354532D02*
Y358469D01*
X193032Y366500D02*
X196968D01*
X195000Y364531D02*
Y368468D01*
X193032Y376500D02*
X196968D01*
X195000Y374532D02*
Y378468D01*
X193032Y386500D02*
X196968D01*
X195000Y384531D02*
Y388469D01*
X193032Y452500D02*
X196968D01*
X195000Y450531D02*
Y454468D01*
X193032Y442500D02*
X196968D01*
X195000Y440531D02*
Y444468D01*
X193032Y432500D02*
X196968D01*
X195000Y430532D02*
Y434469D01*
X193032Y422500D02*
X196968D01*
X195000Y420532D02*
Y424469D01*
X193032Y412500D02*
X196968D01*
X195000Y410532D02*
Y414468D01*
X193032Y402500D02*
X196968D01*
X195000Y400531D02*
Y404468D01*
X193032Y462500D02*
X196968D01*
X195000Y460532D02*
Y464468D01*
X383032Y402500D02*
X386968D01*
X385000Y400531D02*
Y404468D01*
X383032Y392500D02*
X386968D01*
X385000Y390531D02*
Y394468D01*
X383032Y332500D02*
X386968D01*
X385000Y330532D02*
Y334469D01*
X383032Y342500D02*
X386968D01*
X385000Y340531D02*
Y344468D01*
X383032Y352500D02*
X386968D01*
X385000Y350532D02*
Y354468D01*
X383032Y362500D02*
X386968D01*
X385000Y360531D02*
Y364469D01*
X383032Y372500D02*
X386968D01*
X385000Y370532D02*
Y374468D01*
X383032Y382500D02*
X386968D01*
X385000Y380532D02*
Y384469D01*
X383032Y472500D02*
X386968D01*
X385000Y470532D02*
Y474469D01*
X383032Y462500D02*
X386968D01*
X385000Y460532D02*
Y464468D01*
X383032Y452500D02*
X386968D01*
X385000Y450531D02*
Y454468D01*
X383032Y442500D02*
X386968D01*
X385000Y440531D02*
Y444468D01*
X383032Y432500D02*
X386968D01*
X385000Y430532D02*
Y434469D01*
X383032Y422500D02*
X386968D01*
X385000Y420532D02*
Y424469D01*
X293500Y434000D02*
X294500D01*
X294000Y433500D02*
Y434500D01*
X298100Y411000D02*
X300900D01*
X299500Y409600D02*
Y412400D01*
X237500Y457000D02*
X238500D01*
X238000Y456500D02*
Y457500D01*
X278500Y406000D02*
X279500D01*
X279000Y405500D02*
Y406500D01*
X312000Y390500D02*
X313000D01*
X312500Y390000D02*
Y391000D01*
X292000Y390000D02*
X293000D01*
X292500Y389500D02*
Y390500D01*
X343000Y361500D02*
X344000D01*
X343500Y361000D02*
Y362000D01*
X341500Y384000D02*
X342500D01*
X342000Y383500D02*
Y384500D01*
X366000Y384000D02*
X367000D01*
X366500Y383500D02*
Y384500D01*
X216000Y378500D02*
X217000D01*
X216500Y378000D02*
Y379000D01*
X359000Y286500D02*
X360000D01*
X359500Y286000D02*
Y287000D01*
X341000Y299500D02*
X342000D01*
X341500Y299000D02*
Y300000D01*
X312500Y343000D02*
X313500D01*
X313000Y342500D02*
Y343500D01*
X240500Y412000D02*
X241500D01*
X241000Y411500D02*
Y412500D01*
X285500Y428500D02*
X286500D01*
X286000Y428000D02*
Y429000D01*
X277000Y428500D02*
X278000D01*
X277500Y428000D02*
Y429000D01*
X266500Y406500D02*
X267500D01*
X267000Y406000D02*
Y407000D01*
X272500Y400500D02*
X273500D01*
X273000Y400000D02*
Y401000D01*
X298000Y326000D02*
X299000D01*
X298500Y325500D02*
Y326500D01*
X287000Y313500D02*
X288000D01*
X287500Y313000D02*
Y314000D01*
X316000Y436500D02*
X317000D01*
X316500Y436000D02*
Y437000D01*
X262000Y436500D02*
X263000D01*
X262500Y436000D02*
Y437000D01*
X225000Y357500D02*
X226000D01*
X225500Y357000D02*
Y358000D01*
X385000Y296000D02*
X386000D01*
X385500Y295500D02*
Y296500D01*
X381500Y310500D02*
X382500D01*
X382000Y310000D02*
Y311000D01*
X321500Y366000D02*
X322500D01*
X322000Y365500D02*
Y366500D01*
X308000Y364000D02*
X309000D01*
X308500Y363500D02*
Y364500D01*
X317000Y322000D02*
X318000D01*
X317500Y321500D02*
Y322500D01*
X263000Y306500D02*
X264000D01*
X263500Y306000D02*
Y307000D01*
X379000Y410500D02*
X380000D01*
X379500Y410000D02*
Y411000D01*
X362500Y396000D02*
X363500D01*
X363000Y395500D02*
Y396500D01*
X298000Y313500D02*
X299000D01*
X298500Y313000D02*
Y314000D01*
X287000Y326000D02*
X288000D01*
X287500Y325500D02*
Y326500D01*
X298000Y340500D02*
X299000D01*
X298500Y340000D02*
Y341000D01*
X286500Y340500D02*
X287500D01*
X287000Y340000D02*
Y341000D01*
X185000Y391500D02*
X186000D01*
X185500Y391000D02*
Y392000D01*
X179500Y396500D02*
X180500D01*
X180000Y396000D02*
Y397000D01*
X322600Y411000D02*
X325400D01*
X324000Y409600D02*
Y412400D01*
X259500Y379500D02*
X260500D01*
X260000Y379000D02*
Y380000D01*
X243500D02*
X244500D01*
X244000Y379500D02*
Y380500D01*
X223500Y470500D02*
X224500D01*
X224000Y470000D02*
Y471000D01*
X229000Y293500D02*
X230000D01*
X229500Y293000D02*
Y294000D01*
X237000Y295500D02*
X238000D01*
X237500Y295000D02*
Y296000D01*
X340000Y457000D02*
X341000D01*
X340500Y456500D02*
Y457500D01*
X353500Y470000D02*
X354500D01*
X354000Y469500D02*
Y470500D01*
M02*
