G04 Layer_Color=8150272*
%FSLAX25Y25*%
%MOIN*%
G70*
G01*
G75*
%ADD24C,0.01000*%
%ADD53C,0.06706*%
%ADD54R,0.06706X0.06706*%
%ADD55C,0.12217*%
%ADD56O,0.11800X0.08800*%
%ADD57C,0.03800*%
%ADD58C,0.05800*%
D24*
X175000Y255500D02*
X400500D01*
X403500D01*
Y511500D01*
X175500D02*
X403500D01*
X175000Y255500D02*
X175500Y511500D01*
D53*
X355165Y440937D02*
D03*
Y423220D02*
D03*
Y433063D02*
D03*
X223835Y440937D02*
D03*
Y423220D02*
D03*
Y433063D02*
D03*
X354665Y317063D02*
D03*
Y334780D02*
D03*
Y324937D02*
D03*
X224835D02*
D03*
Y307221D02*
D03*
Y317063D02*
D03*
D54*
X355165Y450779D02*
D03*
X223835D02*
D03*
X354665Y307221D02*
D03*
X224835Y334780D02*
D03*
D55*
X365835Y462866D02*
D03*
Y411134D02*
D03*
X213165Y462866D02*
D03*
Y411134D02*
D03*
X365335Y295134D02*
D03*
Y346866D02*
D03*
X214165D02*
D03*
Y295134D02*
D03*
D56*
X195000Y472500D02*
D03*
Y346500D02*
D03*
Y336500D02*
D03*
Y326500D02*
D03*
Y316500D02*
D03*
Y306500D02*
D03*
Y296500D02*
D03*
Y356500D02*
D03*
Y366500D02*
D03*
Y376500D02*
D03*
Y386500D02*
D03*
Y452500D02*
D03*
Y442500D02*
D03*
Y432500D02*
D03*
Y422500D02*
D03*
Y412500D02*
D03*
Y402500D02*
D03*
Y462500D02*
D03*
X385000Y402500D02*
D03*
Y392500D02*
D03*
Y332500D02*
D03*
Y342500D02*
D03*
Y352500D02*
D03*
Y362500D02*
D03*
Y372500D02*
D03*
Y382500D02*
D03*
Y472500D02*
D03*
Y462500D02*
D03*
Y452500D02*
D03*
Y442500D02*
D03*
Y432500D02*
D03*
Y422500D02*
D03*
D57*
X294000Y434000D02*
D03*
X238000Y457000D02*
D03*
X279000Y406000D02*
D03*
X312500Y390500D02*
D03*
X292500Y390000D02*
D03*
X343500Y361500D02*
D03*
X342000Y384000D02*
D03*
X366500D02*
D03*
X216500Y378500D02*
D03*
X359500Y286500D02*
D03*
X341500Y299500D02*
D03*
X313000Y343000D02*
D03*
X241000Y412000D02*
D03*
X286000Y428500D02*
D03*
X277500D02*
D03*
X267000Y406500D02*
D03*
X273000Y400500D02*
D03*
X298500Y326000D02*
D03*
X287500Y313500D02*
D03*
X316500Y436500D02*
D03*
X262500D02*
D03*
X225500Y357500D02*
D03*
X385500Y296000D02*
D03*
X382000Y310500D02*
D03*
X322000Y366000D02*
D03*
X308500Y364000D02*
D03*
X317500Y322000D02*
D03*
X263500Y306500D02*
D03*
X379500Y410500D02*
D03*
X363000Y396000D02*
D03*
X298500Y313500D02*
D03*
X287500Y326000D02*
D03*
X298500Y340500D02*
D03*
X287000D02*
D03*
X185500Y391500D02*
D03*
X180000Y396500D02*
D03*
X260000Y379500D02*
D03*
X244000Y380000D02*
D03*
X224000Y470500D02*
D03*
X229500Y293500D02*
D03*
X237500Y295500D02*
D03*
X340500Y457000D02*
D03*
X354000Y470000D02*
D03*
D58*
X299500Y411000D02*
D03*
X324000D02*
D03*
M02*
