G04 Layer_Physical_Order=2*
G04 Layer_Color=11436288*
%FSLAX25Y25*%
%MOIN*%
G70*
G01*
G75*
%ADD24C,0.01000*%
%ADD25C,0.03000*%
%ADD26C,0.05906*%
%ADD27R,0.05906X0.05906*%
%ADD28C,0.11417*%
%ADD29O,0.11000X0.08000*%
%ADD30C,0.03000*%
%ADD31C,0.05000*%
G36*
X400000Y277500D02*
X177500D01*
Y395741D01*
X178000Y395790D01*
X178022Y395681D01*
X178486Y394986D01*
X179181Y394522D01*
X180000Y394359D01*
X180819Y394522D01*
X181514Y394986D01*
X181776Y395378D01*
X214000D01*
X214000Y395378D01*
X214429Y395464D01*
X214793Y395707D01*
X224465Y405378D01*
X265224D01*
X265486Y404986D01*
X266181Y404522D01*
X267000Y404359D01*
X267819Y404522D01*
X268514Y404986D01*
X268978Y405681D01*
X269141Y406500D01*
X268978Y407319D01*
X268514Y408014D01*
X267819Y408478D01*
X267000Y408641D01*
X266181Y408478D01*
X265486Y408014D01*
X265224Y407621D01*
X224000D01*
X224000Y407622D01*
X223571Y407536D01*
X223207Y407293D01*
X223207Y407293D01*
X213535Y397621D01*
X198049D01*
X197950Y398122D01*
X198820Y398482D01*
X199781Y399219D01*
X200518Y400180D01*
X200982Y401299D01*
X201140Y402500D01*
X200982Y403701D01*
X200518Y404820D01*
X199781Y405781D01*
X198820Y406518D01*
X197701Y406982D01*
X196500Y407140D01*
X193500D01*
X192299Y406982D01*
X191180Y406518D01*
X190219Y405781D01*
X189482Y404820D01*
X189018Y403701D01*
X188860Y402500D01*
X189018Y401299D01*
X189482Y400180D01*
X190219Y399219D01*
X191180Y398482D01*
X192050Y398122D01*
X191951Y397621D01*
X181776D01*
X181514Y398014D01*
X180819Y398478D01*
X180000Y398641D01*
X179181Y398478D01*
X178486Y398014D01*
X178022Y397319D01*
X178000Y397210D01*
X177500Y397259D01*
Y503500D01*
X400000D01*
Y277500D01*
D02*
G37*
%LPC*%
G36*
X312500Y345449D02*
X312024Y345355D01*
X311198Y344802D01*
X310645Y343975D01*
X310550Y343500D01*
X312500D01*
Y345449D01*
D02*
G37*
G36*
X313500D02*
Y343500D01*
X315450D01*
X315355Y343975D01*
X314802Y344802D01*
X313976Y345355D01*
X313500Y345449D01*
D02*
G37*
G36*
X298500Y342641D02*
X297681Y342478D01*
X296986Y342014D01*
X296724Y341621D01*
X288776D01*
X288514Y342014D01*
X287819Y342478D01*
X287000Y342641D01*
X286181Y342478D01*
X285486Y342014D01*
X285022Y341319D01*
X284859Y340500D01*
X285022Y339681D01*
X285486Y338986D01*
X286181Y338522D01*
X287000Y338359D01*
X287819Y338522D01*
X288514Y338986D01*
X288776Y339378D01*
X296724D01*
X296986Y338986D01*
X297681Y338522D01*
X298500Y338359D01*
X299319Y338522D01*
X300014Y338986D01*
X300478Y339681D01*
X300641Y340500D01*
X300478Y341319D01*
X300014Y342014D01*
X299319Y342478D01*
X298500Y342641D01*
D02*
G37*
G36*
X196500Y351140D02*
X193500D01*
X192299Y350982D01*
X191180Y350518D01*
X190219Y349781D01*
X189482Y348820D01*
X189018Y347701D01*
X188860Y346500D01*
X189018Y345299D01*
X189482Y344180D01*
X190219Y343219D01*
X191180Y342482D01*
X192299Y342018D01*
X193500Y341860D01*
X196500D01*
X197701Y342018D01*
X198820Y342482D01*
X199781Y343219D01*
X200518Y344180D01*
X200982Y345299D01*
X201140Y346500D01*
X200982Y347701D01*
X200518Y348820D01*
X199781Y349781D01*
X198820Y350518D01*
X197701Y350982D01*
X196500Y351140D01*
D02*
G37*
G36*
X386500Y357140D02*
X383500D01*
X382299Y356982D01*
X381180Y356518D01*
X380219Y355781D01*
X379482Y354820D01*
X379018Y353701D01*
X378860Y352500D01*
X379018Y351299D01*
X379482Y350180D01*
X380219Y349219D01*
X381180Y348482D01*
X382299Y348018D01*
X383500Y347860D01*
X386500D01*
X387701Y348018D01*
X388820Y348482D01*
X389781Y349219D01*
X390518Y350180D01*
X390982Y351299D01*
X391140Y352500D01*
X390982Y353701D01*
X390518Y354820D01*
X389781Y355781D01*
X388820Y356518D01*
X387701Y356982D01*
X386500Y357140D01*
D02*
G37*
G36*
X227950Y357000D02*
X226000D01*
Y355050D01*
X226476Y355145D01*
X227302Y355698D01*
X227855Y356524D01*
X227950Y357000D01*
D02*
G37*
G36*
X386500Y367140D02*
X383500D01*
X382299Y366982D01*
X381180Y366518D01*
X380219Y365781D01*
X379482Y364820D01*
X379018Y363701D01*
X378860Y362500D01*
X379018Y361299D01*
X379482Y360180D01*
X380219Y359219D01*
X381180Y358482D01*
X382299Y358018D01*
X383500Y357860D01*
X386500D01*
X387701Y358018D01*
X388820Y358482D01*
X389781Y359219D01*
X390518Y360180D01*
X390982Y361299D01*
X391140Y362500D01*
X390982Y363701D01*
X390518Y364820D01*
X389781Y365781D01*
X388820Y366518D01*
X387701Y366982D01*
X386500Y367140D01*
D02*
G37*
G36*
X196500Y361140D02*
X193500D01*
X192299Y360982D01*
X191180Y360518D01*
X190219Y359781D01*
X189482Y358820D01*
X189018Y357701D01*
X188860Y356500D01*
X189018Y355299D01*
X189482Y354180D01*
X190219Y353219D01*
X191180Y352482D01*
X192299Y352018D01*
X193500Y351860D01*
X196500D01*
X197701Y352018D01*
X198820Y352482D01*
X199781Y353219D01*
X200518Y354180D01*
X200982Y355299D01*
X201140Y356500D01*
X200982Y357701D01*
X200518Y358820D01*
X199781Y359781D01*
X198820Y360518D01*
X197701Y360982D01*
X196500Y361140D01*
D02*
G37*
G36*
X225000Y357000D02*
X223050D01*
X223145Y356524D01*
X223698Y355698D01*
X224524Y355145D01*
X225000Y355050D01*
Y357000D01*
D02*
G37*
G36*
X315450Y342500D02*
X313500D01*
Y340550D01*
X313976Y340645D01*
X314802Y341198D01*
X315355Y342024D01*
X315450Y342500D01*
D02*
G37*
G36*
X386500Y337140D02*
X383500D01*
X382299Y336982D01*
X381180Y336518D01*
X380219Y335781D01*
X379482Y334820D01*
X379018Y333701D01*
X378860Y332500D01*
X379018Y331299D01*
X379482Y330180D01*
X380219Y329219D01*
X381180Y328482D01*
X382299Y328018D01*
X383500Y327860D01*
X386500D01*
X387701Y328018D01*
X388820Y328482D01*
X389781Y329219D01*
X390518Y330180D01*
X390982Y331299D01*
X391140Y332500D01*
X390982Y333701D01*
X390518Y334820D01*
X389781Y335781D01*
X388820Y336518D01*
X387701Y336982D01*
X386500Y337140D01*
D02*
G37*
G36*
X354665Y338363D02*
X353738Y338241D01*
X352874Y337883D01*
X352132Y337313D01*
X351562Y336571D01*
X351204Y335707D01*
X351082Y334780D01*
X351204Y333852D01*
X351562Y332988D01*
X352132Y332246D01*
X352874Y331676D01*
X353738Y331318D01*
X354665Y331196D01*
X355593Y331318D01*
X356457Y331676D01*
X357199Y332246D01*
X357769Y332988D01*
X358127Y333852D01*
X358249Y334780D01*
X358127Y335707D01*
X357769Y336571D01*
X357199Y337313D01*
X356457Y337883D01*
X355593Y338241D01*
X354665Y338363D01*
D02*
G37*
G36*
X298500Y328141D02*
X297681Y327978D01*
X296986Y327514D01*
X296724Y327121D01*
X289276D01*
X289014Y327514D01*
X288319Y327978D01*
X287500Y328141D01*
X286681Y327978D01*
X285986Y327514D01*
X285522Y326819D01*
X285359Y326000D01*
X285522Y325181D01*
X285986Y324486D01*
X286681Y324022D01*
X287500Y323859D01*
X288319Y324022D01*
X289014Y324486D01*
X289276Y324879D01*
X296724D01*
X296986Y324486D01*
X297681Y324022D01*
X298500Y323859D01*
X299319Y324022D01*
X300014Y324486D01*
X300478Y325181D01*
X300641Y326000D01*
X300478Y326819D01*
X300014Y327514D01*
X299319Y327978D01*
X298500Y328141D01*
D02*
G37*
G36*
X318000Y324449D02*
Y322500D01*
X319950D01*
X319855Y322975D01*
X319302Y323802D01*
X318476Y324355D01*
X318000Y324449D01*
D02*
G37*
G36*
X196500Y341140D02*
X193500D01*
X192299Y340982D01*
X191180Y340518D01*
X190219Y339781D01*
X189482Y338820D01*
X189018Y337701D01*
X188860Y336500D01*
X189018Y335299D01*
X189482Y334180D01*
X190219Y333219D01*
X191180Y332482D01*
X192299Y332018D01*
X192789Y331954D01*
Y331450D01*
X192195Y331371D01*
X190978Y330868D01*
X189934Y330066D01*
X189132Y329022D01*
X188629Y327805D01*
X188523Y327000D01*
X201477D01*
X201371Y327805D01*
X200868Y329022D01*
X200066Y330066D01*
X199022Y330868D01*
X197805Y331371D01*
X197211Y331450D01*
Y331954D01*
X197701Y332018D01*
X198820Y332482D01*
X199781Y333219D01*
X200518Y334180D01*
X200982Y335299D01*
X201140Y336500D01*
X200982Y337701D01*
X200518Y338820D01*
X199781Y339781D01*
X198820Y340518D01*
X197701Y340982D01*
X196500Y341140D01*
D02*
G37*
G36*
X365335Y353205D02*
X364098Y353083D01*
X362909Y352723D01*
X361813Y352137D01*
X360852Y351349D01*
X360064Y350388D01*
X359478Y349292D01*
X359117Y348103D01*
X358996Y346866D01*
X359117Y345629D01*
X359478Y344440D01*
X360064Y343344D01*
X360852Y342384D01*
X361813Y341595D01*
X362909Y341009D01*
X364098Y340649D01*
X365335Y340527D01*
X366571Y340649D01*
X367760Y341009D01*
X368857Y341595D01*
X369817Y342384D01*
X370605Y343344D01*
X371191Y344440D01*
X371552Y345629D01*
X371674Y346866D01*
X371552Y348103D01*
X371191Y349292D01*
X370605Y350388D01*
X369817Y351349D01*
X368857Y352137D01*
X367760Y352723D01*
X366571Y353083D01*
X365335Y353205D01*
D02*
G37*
G36*
X312500Y342500D02*
X310550D01*
X310645Y342024D01*
X311198Y341198D01*
X312024Y340645D01*
X312500Y340550D01*
Y342500D01*
D02*
G37*
G36*
X214165Y353205D02*
X212929Y353083D01*
X211739Y352723D01*
X210644Y352137D01*
X209683Y351349D01*
X208894Y350388D01*
X208309Y349292D01*
X207948Y348103D01*
X207826Y346866D01*
X207948Y345629D01*
X208309Y344440D01*
X208894Y343344D01*
X209683Y342384D01*
X210644Y341595D01*
X211739Y341009D01*
X212929Y340649D01*
X214165Y340527D01*
X215402Y340649D01*
X216591Y341009D01*
X217687Y341595D01*
X218648Y342384D01*
X219436Y343344D01*
X220022Y344440D01*
X220383Y345629D01*
X220504Y346866D01*
X220383Y348103D01*
X220022Y349292D01*
X219436Y350388D01*
X218648Y351349D01*
X217687Y352137D01*
X216591Y352723D01*
X215402Y353083D01*
X214165Y353205D01*
D02*
G37*
G36*
X228387Y338332D02*
X221282D01*
Y331227D01*
X228387D01*
Y338332D01*
D02*
G37*
G36*
X386500Y347140D02*
X383500D01*
X382299Y346982D01*
X381180Y346518D01*
X380219Y345781D01*
X379482Y344820D01*
X379018Y343701D01*
X378860Y342500D01*
X379018Y341299D01*
X379482Y340180D01*
X380219Y339219D01*
X381180Y338482D01*
X382299Y338018D01*
X383500Y337860D01*
X386500D01*
X387701Y338018D01*
X388820Y338482D01*
X389781Y339219D01*
X390518Y340180D01*
X390982Y341299D01*
X391140Y342500D01*
X390982Y343701D01*
X390518Y344820D01*
X389781Y345781D01*
X388820Y346518D01*
X387701Y346982D01*
X386500Y347140D01*
D02*
G37*
G36*
X322500Y368449D02*
Y366500D01*
X324449D01*
X324355Y366975D01*
X323802Y367802D01*
X322975Y368355D01*
X322500Y368449D01*
D02*
G37*
G36*
X391477Y382000D02*
X378523D01*
X378629Y381195D01*
X379133Y379978D01*
X379934Y378934D01*
X380978Y378133D01*
X382195Y377629D01*
X382789Y377550D01*
Y377046D01*
X382299Y376982D01*
X381180Y376518D01*
X380219Y375781D01*
X379482Y374820D01*
X379018Y373701D01*
X378860Y372500D01*
X379018Y371299D01*
X379482Y370180D01*
X380219Y369219D01*
X381180Y368482D01*
X382299Y368018D01*
X383500Y367860D01*
X386500D01*
X387701Y368018D01*
X388820Y368482D01*
X389781Y369219D01*
X390518Y370180D01*
X390982Y371299D01*
X391140Y372500D01*
X390982Y373701D01*
X390518Y374820D01*
X389781Y375781D01*
X388820Y376518D01*
X387701Y376982D01*
X387211Y377046D01*
Y377550D01*
X387805Y377629D01*
X389022Y378133D01*
X390066Y378934D01*
X390867Y379978D01*
X391371Y381195D01*
X391477Y382000D01*
D02*
G37*
G36*
X321500Y368449D02*
X321024Y368355D01*
X320198Y367802D01*
X319645Y366975D01*
X319550Y366500D01*
X321500D01*
Y368449D01*
D02*
G37*
G36*
X308000Y366449D02*
X307524Y366355D01*
X306698Y365802D01*
X306145Y364976D01*
X306050Y364500D01*
X308000D01*
Y366449D01*
D02*
G37*
G36*
X309000D02*
Y364500D01*
X310949D01*
X310855Y364976D01*
X310302Y365802D01*
X309475Y366355D01*
X309000Y366449D01*
D02*
G37*
G36*
X244000Y382141D02*
X243181Y381978D01*
X242486Y381514D01*
X242022Y380819D01*
X241859Y380000D01*
X242022Y379181D01*
X242486Y378486D01*
X243181Y378022D01*
X244000Y377859D01*
X244819Y378022D01*
X245353Y378379D01*
X258224D01*
X258486Y377986D01*
X259181Y377522D01*
X260000Y377359D01*
X260819Y377522D01*
X261514Y377986D01*
X261978Y378681D01*
X262141Y379500D01*
X261978Y380319D01*
X261514Y381014D01*
X260819Y381478D01*
X260000Y381641D01*
X259181Y381478D01*
X258486Y381014D01*
X258224Y380622D01*
X246018D01*
X245978Y380819D01*
X245514Y381514D01*
X244819Y381978D01*
X244000Y382141D01*
D02*
G37*
G36*
X216000Y380949D02*
X215525Y380855D01*
X214698Y380302D01*
X214145Y379475D01*
X214051Y379000D01*
X216000D01*
Y380949D01*
D02*
G37*
G36*
X218950Y378000D02*
X217000D01*
Y376050D01*
X217476Y376145D01*
X218302Y376698D01*
X218855Y377524D01*
X218950Y378000D01*
D02*
G37*
G36*
X196500Y381140D02*
X193500D01*
X192299Y380982D01*
X191180Y380518D01*
X190219Y379781D01*
X189482Y378820D01*
X189018Y377701D01*
X188860Y376500D01*
X189018Y375299D01*
X189482Y374180D01*
X190219Y373219D01*
X191180Y372482D01*
X192299Y372018D01*
X193500Y371860D01*
X196500D01*
X197701Y372018D01*
X198820Y372482D01*
X199781Y373219D01*
X200518Y374180D01*
X200982Y375299D01*
X201140Y376500D01*
X200982Y377701D01*
X200518Y378820D01*
X199781Y379781D01*
X198820Y380518D01*
X197701Y380982D01*
X196500Y381140D01*
D02*
G37*
G36*
X216000Y378000D02*
X214051D01*
X214145Y377524D01*
X214698Y376698D01*
X215525Y376145D01*
X216000Y376050D01*
Y378000D01*
D02*
G37*
G36*
X324449Y365500D02*
X322500D01*
Y363550D01*
X322975Y363645D01*
X323802Y364198D01*
X324355Y365024D01*
X324449Y365500D01*
D02*
G37*
G36*
X345950Y361000D02*
X344000D01*
Y359050D01*
X344476Y359145D01*
X345302Y359698D01*
X345855Y360525D01*
X345950Y361000D01*
D02*
G37*
G36*
X308000Y363500D02*
X306050D01*
X306145Y363024D01*
X306698Y362198D01*
X307524Y361645D01*
X308000Y361550D01*
Y363500D01*
D02*
G37*
G36*
X343000Y361000D02*
X341051D01*
X341145Y360525D01*
X341698Y359698D01*
X342525Y359145D01*
X343000Y359050D01*
Y361000D01*
D02*
G37*
G36*
X225000Y359949D02*
X224524Y359855D01*
X223698Y359302D01*
X223145Y358475D01*
X223050Y358000D01*
X225000D01*
Y359949D01*
D02*
G37*
G36*
X226000D02*
Y358000D01*
X227950D01*
X227855Y358475D01*
X227302Y359302D01*
X226476Y359855D01*
X226000Y359949D01*
D02*
G37*
G36*
X344000Y363949D02*
Y362000D01*
X345950D01*
X345855Y362475D01*
X345302Y363302D01*
X344476Y363855D01*
X344000Y363949D01*
D02*
G37*
G36*
X321500Y365500D02*
X319550D01*
X319645Y365024D01*
X320198Y364198D01*
X321024Y363645D01*
X321500Y363550D01*
Y365500D01*
D02*
G37*
G36*
X343000Y363949D02*
X342525Y363855D01*
X341698Y363302D01*
X341145Y362475D01*
X341051Y362000D01*
X343000D01*
Y363949D01*
D02*
G37*
G36*
X310949Y363500D02*
X309000D01*
Y361550D01*
X309475Y361645D01*
X310302Y362198D01*
X310855Y363024D01*
X310949Y363500D01*
D02*
G37*
G36*
X196500Y371140D02*
X193500D01*
X192299Y370982D01*
X191180Y370518D01*
X190219Y369781D01*
X189482Y368820D01*
X189018Y367701D01*
X188860Y366500D01*
X189018Y365299D01*
X189482Y364180D01*
X190219Y363219D01*
X191180Y362482D01*
X192299Y362018D01*
X193500Y361860D01*
X196500D01*
X197701Y362018D01*
X198820Y362482D01*
X199781Y363219D01*
X200518Y364180D01*
X200982Y365299D01*
X201140Y366500D01*
X200982Y367701D01*
X200518Y368820D01*
X199781Y369781D01*
X198820Y370518D01*
X197701Y370982D01*
X196500Y371140D01*
D02*
G37*
G36*
X317000Y324449D02*
X316525Y324355D01*
X315698Y323802D01*
X315145Y322975D01*
X315051Y322500D01*
X317000D01*
Y324449D01*
D02*
G37*
G36*
X230000Y295950D02*
Y294000D01*
X231949D01*
X231855Y294476D01*
X231302Y295302D01*
X230475Y295855D01*
X230000Y295950D01*
D02*
G37*
G36*
X237000Y297950D02*
X236525Y297855D01*
X235698Y297302D01*
X235145Y296476D01*
X235051Y296000D01*
X237000D01*
Y297950D01*
D02*
G37*
G36*
X229000Y295950D02*
X228524Y295855D01*
X227698Y295302D01*
X227145Y294476D01*
X227050Y294000D01*
X229000D01*
Y295950D01*
D02*
G37*
G36*
X385000Y295500D02*
X383050D01*
X383145Y295024D01*
X383698Y294198D01*
X384524Y293645D01*
X385000Y293550D01*
Y295500D01*
D02*
G37*
G36*
X387949D02*
X386000D01*
Y293550D01*
X386475Y293645D01*
X387302Y294198D01*
X387855Y295024D01*
X387949Y295500D01*
D02*
G37*
G36*
X341000Y299000D02*
X339051D01*
X339145Y298524D01*
X339698Y297698D01*
X340525Y297145D01*
X341000Y297050D01*
Y299000D01*
D02*
G37*
G36*
X343950D02*
X342000D01*
Y297050D01*
X342476Y297145D01*
X343302Y297698D01*
X343855Y298524D01*
X343950Y299000D01*
D02*
G37*
G36*
X386000Y298449D02*
Y296500D01*
X387949D01*
X387855Y296975D01*
X387302Y297802D01*
X386475Y298355D01*
X386000Y298449D01*
D02*
G37*
G36*
X238000Y297950D02*
Y296000D01*
X239949D01*
X239855Y296476D01*
X239302Y297302D01*
X238475Y297855D01*
X238000Y297950D01*
D02*
G37*
G36*
X385000Y298449D02*
X384524Y298355D01*
X383698Y297802D01*
X383145Y296975D01*
X383050Y296500D01*
X385000D01*
Y298449D01*
D02*
G37*
G36*
X239949Y295000D02*
X238000D01*
Y293051D01*
X238475Y293145D01*
X239302Y293698D01*
X239855Y294525D01*
X239949Y295000D01*
D02*
G37*
G36*
X360000Y288949D02*
Y287000D01*
X361949D01*
X361855Y287475D01*
X361302Y288302D01*
X360475Y288855D01*
X360000Y288949D01*
D02*
G37*
G36*
X214165Y301473D02*
X212929Y301351D01*
X211739Y300991D01*
X210644Y300405D01*
X209683Y299616D01*
X208894Y298656D01*
X208309Y297560D01*
X207948Y296371D01*
X207826Y295134D01*
X207948Y293897D01*
X208309Y292708D01*
X208894Y291612D01*
X209683Y290651D01*
X210644Y289863D01*
X211739Y289277D01*
X212929Y288916D01*
X214165Y288795D01*
X215402Y288916D01*
X216591Y289277D01*
X217687Y289863D01*
X218648Y290651D01*
X219436Y291612D01*
X220022Y292708D01*
X220383Y293897D01*
X220504Y295134D01*
X220383Y296371D01*
X220022Y297560D01*
X219436Y298656D01*
X218648Y299616D01*
X217687Y300405D01*
X216591Y300991D01*
X215402Y301351D01*
X214165Y301473D01*
D02*
G37*
G36*
X359000Y288949D02*
X358524Y288855D01*
X357698Y288302D01*
X357145Y287475D01*
X357050Y287000D01*
X359000D01*
Y288949D01*
D02*
G37*
G36*
Y286000D02*
X357050D01*
X357145Y285525D01*
X357698Y284698D01*
X358524Y284145D01*
X359000Y284050D01*
Y286000D01*
D02*
G37*
G36*
X361949D02*
X360000D01*
Y284050D01*
X360475Y284145D01*
X361302Y284698D01*
X361855Y285525D01*
X361949Y286000D01*
D02*
G37*
G36*
X196500Y301140D02*
X193500D01*
X192299Y300982D01*
X191180Y300518D01*
X190219Y299781D01*
X189482Y298820D01*
X189018Y297701D01*
X188860Y296500D01*
X189018Y295299D01*
X189482Y294180D01*
X190219Y293219D01*
X191180Y292482D01*
X192299Y292018D01*
X193500Y291860D01*
X196500D01*
X197701Y292018D01*
X198820Y292482D01*
X199781Y293219D01*
X200518Y294180D01*
X200982Y295299D01*
X201140Y296500D01*
X200982Y297701D01*
X200518Y298820D01*
X199781Y299781D01*
X198820Y300518D01*
X197701Y300982D01*
X196500Y301140D01*
D02*
G37*
G36*
X237000Y295000D02*
X235051D01*
X235145Y294525D01*
X235698Y293698D01*
X236525Y293145D01*
X237000Y293051D01*
Y295000D01*
D02*
G37*
G36*
X231949Y293000D02*
X230000D01*
Y291051D01*
X230475Y291145D01*
X231302Y291698D01*
X231855Y292525D01*
X231949Y293000D01*
D02*
G37*
G36*
X365335Y301473D02*
X364098Y301351D01*
X362909Y300991D01*
X361813Y300405D01*
X360852Y299616D01*
X360064Y298656D01*
X359478Y297560D01*
X359117Y296371D01*
X358996Y295134D01*
X359117Y293897D01*
X359478Y292708D01*
X360064Y291612D01*
X360852Y290651D01*
X361813Y289863D01*
X362909Y289277D01*
X364098Y288916D01*
X365335Y288795D01*
X366571Y288916D01*
X367760Y289277D01*
X368857Y289863D01*
X369817Y290651D01*
X370605Y291612D01*
X371191Y292708D01*
X371552Y293897D01*
X371674Y295134D01*
X371552Y296371D01*
X371191Y297560D01*
X370605Y298656D01*
X369817Y299616D01*
X368857Y300405D01*
X367760Y300991D01*
X366571Y301351D01*
X365335Y301473D01*
D02*
G37*
G36*
X229000Y293000D02*
X227050D01*
X227145Y292525D01*
X227698Y291698D01*
X228524Y291145D01*
X229000Y291051D01*
Y293000D01*
D02*
G37*
G36*
X224835Y320646D02*
X223907Y320524D01*
X223043Y320166D01*
X222301Y319597D01*
X221731Y318855D01*
X221373Y317990D01*
X221251Y317063D01*
X221373Y316136D01*
X221731Y315271D01*
X222301Y314529D01*
X223043Y313960D01*
X223907Y313602D01*
X224835Y313480D01*
X225762Y313602D01*
X226626Y313960D01*
X227368Y314529D01*
X227938Y315271D01*
X228296Y316136D01*
X228418Y317063D01*
X228296Y317990D01*
X227938Y318855D01*
X227368Y319597D01*
X226626Y320166D01*
X225762Y320524D01*
X224835Y320646D01*
D02*
G37*
G36*
X354665D02*
X353738Y320524D01*
X352874Y320166D01*
X352132Y319597D01*
X351562Y318855D01*
X351204Y317990D01*
X351082Y317063D01*
X351204Y316136D01*
X351562Y315271D01*
X352132Y314529D01*
X352874Y313960D01*
X353738Y313602D01*
X354665Y313480D01*
X355593Y313602D01*
X356457Y313960D01*
X357199Y314529D01*
X357769Y315271D01*
X358127Y316136D01*
X358249Y317063D01*
X358127Y317990D01*
X357769Y318855D01*
X357199Y319597D01*
X356457Y320166D01*
X355593Y320524D01*
X354665Y320646D01*
D02*
G37*
G36*
X201477Y326000D02*
X188523D01*
X188629Y325195D01*
X189132Y323978D01*
X189934Y322934D01*
X190978Y322132D01*
X192195Y321629D01*
X192789Y321550D01*
Y321046D01*
X192299Y320982D01*
X191180Y320518D01*
X190219Y319781D01*
X189482Y318820D01*
X189018Y317701D01*
X188860Y316500D01*
X189018Y315299D01*
X189482Y314180D01*
X190219Y313219D01*
X191180Y312482D01*
X192299Y312018D01*
X193500Y311860D01*
X196500D01*
X197701Y312018D01*
X198820Y312482D01*
X199781Y313219D01*
X200518Y314180D01*
X200982Y315299D01*
X201140Y316500D01*
X200982Y317701D01*
X200518Y318820D01*
X199781Y319781D01*
X198820Y320518D01*
X197701Y320982D01*
X197211Y321046D01*
Y321550D01*
X197805Y321629D01*
X199022Y322132D01*
X200066Y322934D01*
X200868Y323978D01*
X201371Y325195D01*
X201477Y326000D01*
D02*
G37*
G36*
X381500Y312949D02*
X381025Y312855D01*
X380198Y312302D01*
X379645Y311475D01*
X379551Y311000D01*
X381500D01*
Y312949D01*
D02*
G37*
G36*
X382500D02*
Y311000D01*
X384450D01*
X384355Y311475D01*
X383802Y312302D01*
X382976Y312855D01*
X382500Y312949D01*
D02*
G37*
G36*
X224835Y328520D02*
X223907Y328398D01*
X223043Y328040D01*
X222301Y327471D01*
X221731Y326729D01*
X221373Y325865D01*
X221251Y324937D01*
X221373Y324010D01*
X221731Y323145D01*
X222301Y322403D01*
X223043Y321834D01*
X223907Y321476D01*
X224835Y321354D01*
X225762Y321476D01*
X226626Y321834D01*
X227368Y322403D01*
X227938Y323145D01*
X228296Y324010D01*
X228418Y324937D01*
X228296Y325865D01*
X227938Y326729D01*
X227368Y327471D01*
X226626Y328040D01*
X225762Y328398D01*
X224835Y328520D01*
D02*
G37*
G36*
X354665D02*
X353738Y328398D01*
X352874Y328040D01*
X352132Y327471D01*
X351562Y326729D01*
X351204Y325865D01*
X351082Y324937D01*
X351204Y324010D01*
X351562Y323145D01*
X352132Y322403D01*
X352874Y321834D01*
X353738Y321476D01*
X354665Y321354D01*
X355593Y321476D01*
X356457Y321834D01*
X357199Y322403D01*
X357769Y323145D01*
X358127Y324010D01*
X358249Y324937D01*
X358127Y325865D01*
X357769Y326729D01*
X357199Y327471D01*
X356457Y328040D01*
X355593Y328398D01*
X354665Y328520D01*
D02*
G37*
G36*
X319950Y321500D02*
X318000D01*
Y319550D01*
X318476Y319645D01*
X319302Y320198D01*
X319855Y321024D01*
X319950Y321500D01*
D02*
G37*
G36*
X298500Y315641D02*
X297681Y315478D01*
X296986Y315014D01*
X296724Y314621D01*
X289276D01*
X289014Y315014D01*
X288319Y315478D01*
X287500Y315641D01*
X286681Y315478D01*
X285986Y315014D01*
X285522Y314319D01*
X285359Y313500D01*
X285522Y312681D01*
X285986Y311986D01*
X286681Y311522D01*
X287500Y311359D01*
X288319Y311522D01*
X289014Y311986D01*
X289276Y312379D01*
X296724D01*
X296986Y311986D01*
X297681Y311522D01*
X298500Y311359D01*
X299319Y311522D01*
X300014Y311986D01*
X300478Y312681D01*
X300641Y313500D01*
X300478Y314319D01*
X300014Y315014D01*
X299319Y315478D01*
X298500Y315641D01*
D02*
G37*
G36*
X317000Y321500D02*
X315051D01*
X315145Y321024D01*
X315698Y320198D01*
X316525Y319645D01*
X317000Y319550D01*
Y321500D01*
D02*
G37*
G36*
X384450Y310000D02*
X382500D01*
Y308050D01*
X382976Y308145D01*
X383802Y308698D01*
X384355Y309524D01*
X384450Y310000D01*
D02*
G37*
G36*
X224835Y310804D02*
X223907Y310682D01*
X223043Y310324D01*
X222301Y309754D01*
X221731Y309012D01*
X221373Y308148D01*
X221251Y307221D01*
X221373Y306293D01*
X221731Y305429D01*
X222301Y304687D01*
X223043Y304117D01*
X223907Y303759D01*
X224835Y303637D01*
X225762Y303759D01*
X226626Y304117D01*
X227368Y304687D01*
X227938Y305429D01*
X228296Y306293D01*
X228418Y307221D01*
X228296Y308148D01*
X227938Y309012D01*
X227368Y309754D01*
X226626Y310324D01*
X225762Y310682D01*
X224835Y310804D01*
D02*
G37*
G36*
X358218Y310773D02*
X351113D01*
Y303668D01*
X358218D01*
Y310773D01*
D02*
G37*
G36*
X196500Y311140D02*
X193500D01*
X192299Y310982D01*
X191180Y310518D01*
X190219Y309781D01*
X189482Y308820D01*
X189018Y307701D01*
X188860Y306500D01*
X189018Y305299D01*
X189482Y304180D01*
X190219Y303219D01*
X191180Y302482D01*
X192299Y302018D01*
X193500Y301860D01*
X196500D01*
X197701Y302018D01*
X198820Y302482D01*
X199781Y303219D01*
X200518Y304180D01*
X200982Y305299D01*
X201140Y306500D01*
X200982Y307701D01*
X200518Y308820D01*
X199781Y309781D01*
X198820Y310518D01*
X197701Y310982D01*
X196500Y311140D01*
D02*
G37*
G36*
X341000Y301950D02*
X340525Y301855D01*
X339698Y301302D01*
X339145Y300476D01*
X339051Y300000D01*
X341000D01*
Y301950D01*
D02*
G37*
G36*
X342000D02*
Y300000D01*
X343950D01*
X343855Y300476D01*
X343302Y301302D01*
X342476Y301855D01*
X342000Y301950D01*
D02*
G37*
G36*
X264000Y308949D02*
Y307000D01*
X265950D01*
X265855Y307475D01*
X265302Y308302D01*
X264475Y308855D01*
X264000Y308949D01*
D02*
G37*
G36*
X381500Y310000D02*
X379551D01*
X379645Y309524D01*
X380198Y308698D01*
X381025Y308145D01*
X381500Y308050D01*
Y310000D01*
D02*
G37*
G36*
X263000Y308949D02*
X262525Y308855D01*
X261698Y308302D01*
X261145Y307475D01*
X261051Y307000D01*
X263000D01*
Y308949D01*
D02*
G37*
G36*
Y306000D02*
X261051D01*
X261145Y305524D01*
X261698Y304698D01*
X262525Y304145D01*
X263000Y304050D01*
Y306000D01*
D02*
G37*
G36*
X265950D02*
X264000D01*
Y304050D01*
X264475Y304145D01*
X265302Y304698D01*
X265855Y305524D01*
X265950Y306000D01*
D02*
G37*
G36*
X217000Y380949D02*
Y379000D01*
X218950D01*
X218855Y379475D01*
X218302Y380302D01*
X217476Y380855D01*
X217000Y380949D01*
D02*
G37*
G36*
X196500Y447140D02*
X193500D01*
X192299Y446982D01*
X191180Y446518D01*
X190219Y445781D01*
X189482Y444820D01*
X189018Y443701D01*
X188860Y442500D01*
X189018Y441299D01*
X189482Y440180D01*
X190219Y439219D01*
X191180Y438482D01*
X192299Y438018D01*
X193500Y437860D01*
X196500D01*
X197701Y438018D01*
X198820Y438482D01*
X199781Y439219D01*
X200518Y440180D01*
X200982Y441299D01*
X201140Y442500D01*
X200982Y443701D01*
X200518Y444820D01*
X199781Y445781D01*
X198820Y446518D01*
X197701Y446982D01*
X196500Y447140D01*
D02*
G37*
G36*
X386500D02*
X383500D01*
X382299Y446982D01*
X381180Y446518D01*
X380219Y445781D01*
X379482Y444820D01*
X379018Y443701D01*
X378860Y442500D01*
X379018Y441299D01*
X379482Y440180D01*
X380219Y439219D01*
X381180Y438482D01*
X382299Y438018D01*
X383500Y437860D01*
X386500D01*
X387701Y438018D01*
X388820Y438482D01*
X389781Y439219D01*
X390518Y440180D01*
X390982Y441299D01*
X391140Y442500D01*
X390982Y443701D01*
X390518Y444820D01*
X389781Y445781D01*
X388820Y446518D01*
X387701Y446982D01*
X386500Y447140D01*
D02*
G37*
G36*
X355165Y444520D02*
X354238Y444398D01*
X353374Y444040D01*
X352631Y443471D01*
X352062Y442729D01*
X351704Y441864D01*
X351582Y440937D01*
X351704Y440010D01*
X352062Y439145D01*
X352631Y438403D01*
X353374Y437834D01*
X354238Y437476D01*
X355165Y437354D01*
X356093Y437476D01*
X356957Y437834D01*
X357699Y438403D01*
X358269Y439145D01*
X358627Y440010D01*
X358749Y440937D01*
X358627Y441864D01*
X358269Y442729D01*
X357699Y443471D01*
X356957Y444040D01*
X356093Y444398D01*
X355165Y444520D01*
D02*
G37*
G36*
X317000Y438949D02*
Y437000D01*
X318950D01*
X318855Y437475D01*
X318302Y438302D01*
X317476Y438855D01*
X317000Y438949D01*
D02*
G37*
G36*
X223835Y444520D02*
X222907Y444398D01*
X222043Y444040D01*
X221301Y443471D01*
X220731Y442729D01*
X220373Y441864D01*
X220251Y440937D01*
X220373Y440010D01*
X220731Y439145D01*
X221301Y438403D01*
X222043Y437834D01*
X222907Y437476D01*
X223835Y437354D01*
X224762Y437476D01*
X225626Y437834D01*
X226368Y438403D01*
X226938Y439145D01*
X227296Y440010D01*
X227418Y440937D01*
X227296Y441864D01*
X226938Y442729D01*
X226368Y443471D01*
X225626Y444040D01*
X224762Y444398D01*
X223835Y444520D01*
D02*
G37*
G36*
X386500Y457140D02*
X383500D01*
X382299Y456982D01*
X381180Y456518D01*
X380219Y455781D01*
X379482Y454820D01*
X379018Y453701D01*
X378860Y452500D01*
X379018Y451299D01*
X379482Y450180D01*
X380219Y449219D01*
X381180Y448482D01*
X382299Y448018D01*
X383500Y447860D01*
X386500D01*
X387701Y448018D01*
X388820Y448482D01*
X389781Y449219D01*
X390518Y450180D01*
X390982Y451299D01*
X391140Y452500D01*
X390982Y453701D01*
X390518Y454820D01*
X389781Y455781D01*
X388820Y456518D01*
X387701Y456982D01*
X386500Y457140D01*
D02*
G37*
G36*
X237500Y456500D02*
X235550D01*
X235645Y456025D01*
X236198Y455198D01*
X237024Y454645D01*
X237500Y454551D01*
Y456500D01*
D02*
G37*
G36*
X196500Y457140D02*
X193500D01*
X192299Y456982D01*
X191180Y456518D01*
X190219Y455781D01*
X189482Y454820D01*
X189018Y453701D01*
X188860Y452500D01*
X189018Y451299D01*
X189482Y450180D01*
X190219Y449219D01*
X191180Y448482D01*
X192299Y448018D01*
X193500Y447860D01*
X196500D01*
X197701Y448018D01*
X198820Y448482D01*
X199781Y449219D01*
X200518Y450180D01*
X200982Y451299D01*
X201140Y452500D01*
X200982Y453701D01*
X200518Y454820D01*
X199781Y455781D01*
X198820Y456518D01*
X197701Y456982D01*
X196500Y457140D01*
D02*
G37*
G36*
X227387Y454332D02*
X220282D01*
Y447227D01*
X227387D01*
Y454332D01*
D02*
G37*
G36*
X358718D02*
X351613D01*
Y447227D01*
X358718D01*
Y454332D01*
D02*
G37*
G36*
X316000Y438949D02*
X315525Y438855D01*
X314698Y438302D01*
X314145Y437475D01*
X314051Y437000D01*
X316000D01*
Y438949D01*
D02*
G37*
G36*
X264949Y436000D02*
X263000D01*
Y434051D01*
X263475Y434145D01*
X264302Y434698D01*
X264855Y435525D01*
X264949Y436000D01*
D02*
G37*
G36*
X316000D02*
X314051D01*
X314145Y435525D01*
X314698Y434698D01*
X315525Y434145D01*
X316000Y434051D01*
Y436000D01*
D02*
G37*
G36*
X262000D02*
X260051D01*
X260145Y435525D01*
X260698Y434698D01*
X261525Y434145D01*
X262000Y434051D01*
Y436000D01*
D02*
G37*
G36*
X293500Y433500D02*
X291550D01*
X291645Y433025D01*
X292198Y432198D01*
X293024Y431645D01*
X293500Y431551D01*
Y433500D01*
D02*
G37*
G36*
X296449D02*
X294500D01*
Y431551D01*
X294975Y431645D01*
X295802Y432198D01*
X296355Y433025D01*
X296449Y433500D01*
D02*
G37*
G36*
X262000Y438949D02*
X261525Y438855D01*
X260698Y438302D01*
X260145Y437475D01*
X260051Y437000D01*
X262000D01*
Y438949D01*
D02*
G37*
G36*
X263000D02*
Y437000D01*
X264949D01*
X264855Y437475D01*
X264302Y438302D01*
X263475Y438855D01*
X263000Y438949D01*
D02*
G37*
G36*
X294500Y436449D02*
Y434500D01*
X296449D01*
X296355Y434975D01*
X295802Y435802D01*
X294975Y436355D01*
X294500Y436449D01*
D02*
G37*
G36*
X318950Y436000D02*
X317000D01*
Y434051D01*
X317476Y434145D01*
X318302Y434698D01*
X318855Y435525D01*
X318950Y436000D01*
D02*
G37*
G36*
X293500Y436449D02*
X293024Y436355D01*
X292198Y435802D01*
X291645Y434975D01*
X291550Y434500D01*
X293500D01*
Y436449D01*
D02*
G37*
G36*
X386500Y477140D02*
X383500D01*
X382299Y476982D01*
X381180Y476518D01*
X380219Y475781D01*
X379482Y474820D01*
X379018Y473701D01*
X378860Y472500D01*
X379018Y471299D01*
X379482Y470180D01*
X380219Y469219D01*
X381180Y468482D01*
X382299Y468018D01*
X383500Y467860D01*
X386500D01*
X387701Y468018D01*
X388820Y468482D01*
X389781Y469219D01*
X390518Y470180D01*
X390982Y471299D01*
X391140Y472500D01*
X390982Y473701D01*
X390518Y474820D01*
X389781Y475781D01*
X388820Y476518D01*
X387701Y476982D01*
X386500Y477140D01*
D02*
G37*
G36*
X223500Y470000D02*
X221550D01*
X221645Y469524D01*
X222198Y468698D01*
X223025Y468145D01*
X223500Y468050D01*
Y470000D01*
D02*
G37*
G36*
X196500Y477140D02*
X193500D01*
X192299Y476982D01*
X191180Y476518D01*
X190219Y475781D01*
X189482Y474820D01*
X189018Y473701D01*
X188860Y472500D01*
X189018Y471299D01*
X189482Y470180D01*
X190219Y469219D01*
X191180Y468482D01*
X192299Y468018D01*
X193500Y467860D01*
X196500D01*
X197701Y468018D01*
X198820Y468482D01*
X199781Y469219D01*
X200518Y470180D01*
X200982Y471299D01*
X201140Y472500D01*
X200982Y473701D01*
X200518Y474820D01*
X199781Y475781D01*
X198820Y476518D01*
X197701Y476982D01*
X196500Y477140D01*
D02*
G37*
G36*
X353500Y469500D02*
X351551D01*
X351645Y469025D01*
X352198Y468198D01*
X353025Y467645D01*
X353500Y467551D01*
Y469500D01*
D02*
G37*
G36*
X356450D02*
X354500D01*
Y467551D01*
X354976Y467645D01*
X355802Y468198D01*
X356355Y469025D01*
X356450Y469500D01*
D02*
G37*
G36*
X223500Y472950D02*
X223025Y472855D01*
X222198Y472302D01*
X221645Y471476D01*
X221550Y471000D01*
X223500D01*
Y472950D01*
D02*
G37*
G36*
X224500D02*
Y471000D01*
X226449D01*
X226355Y471476D01*
X225802Y472302D01*
X224975Y472855D01*
X224500Y472950D01*
D02*
G37*
G36*
X354500Y472449D02*
Y470500D01*
X356450D01*
X356355Y470975D01*
X355802Y471802D01*
X354976Y472355D01*
X354500Y472449D01*
D02*
G37*
G36*
X226449Y470000D02*
X224500D01*
Y468050D01*
X224975Y468145D01*
X225802Y468698D01*
X226355Y469524D01*
X226449Y470000D01*
D02*
G37*
G36*
X353500Y472449D02*
X353025Y472355D01*
X352198Y471802D01*
X351645Y470975D01*
X351551Y470500D01*
X353500D01*
Y472449D01*
D02*
G37*
G36*
X386500Y467140D02*
X383500D01*
X382299Y466982D01*
X381180Y466518D01*
X380219Y465781D01*
X379482Y464820D01*
X379018Y463701D01*
X378860Y462500D01*
X379018Y461299D01*
X379482Y460180D01*
X380219Y459219D01*
X381180Y458482D01*
X382299Y458018D01*
X383500Y457860D01*
X386500D01*
X387701Y458018D01*
X388820Y458482D01*
X389781Y459219D01*
X390518Y460180D01*
X390982Y461299D01*
X391140Y462500D01*
X390982Y463701D01*
X390518Y464820D01*
X389781Y465781D01*
X388820Y466518D01*
X387701Y466982D01*
X386500Y467140D01*
D02*
G37*
G36*
X213165Y469205D02*
X211929Y469083D01*
X210739Y468723D01*
X209644Y468137D01*
X208683Y467349D01*
X207894Y466388D01*
X207309Y465292D01*
X206948Y464103D01*
X206826Y462866D01*
X206948Y461629D01*
X207309Y460440D01*
X207894Y459344D01*
X208683Y458384D01*
X209644Y457595D01*
X210739Y457010D01*
X211929Y456649D01*
X213165Y456527D01*
X214402Y456649D01*
X215591Y457010D01*
X216687Y457595D01*
X217648Y458384D01*
X218436Y459344D01*
X219022Y460440D01*
X219383Y461629D01*
X219504Y462866D01*
X219383Y464103D01*
X219022Y465292D01*
X218436Y466388D01*
X217648Y467349D01*
X216687Y468137D01*
X215591Y468723D01*
X214402Y469083D01*
X213165Y469205D01*
D02*
G37*
G36*
X365835D02*
X364598Y469083D01*
X363409Y468723D01*
X362313Y468137D01*
X361352Y467349D01*
X360564Y466388D01*
X359978Y465292D01*
X359617Y464103D01*
X359495Y462866D01*
X359617Y461629D01*
X359978Y460440D01*
X360564Y459344D01*
X361352Y458384D01*
X362313Y457595D01*
X363409Y457010D01*
X364598Y456649D01*
X365835Y456527D01*
X367071Y456649D01*
X368261Y457010D01*
X369356Y457595D01*
X370317Y458384D01*
X371106Y459344D01*
X371691Y460440D01*
X372052Y461629D01*
X372174Y462866D01*
X372052Y464103D01*
X371691Y465292D01*
X371106Y466388D01*
X370317Y467349D01*
X369356Y468137D01*
X368261Y468723D01*
X367071Y469083D01*
X365835Y469205D01*
D02*
G37*
G36*
X342950Y456500D02*
X341000D01*
Y454551D01*
X341476Y454645D01*
X342302Y455198D01*
X342855Y456025D01*
X342950Y456500D01*
D02*
G37*
G36*
X240450D02*
X238500D01*
Y454551D01*
X238976Y454645D01*
X239802Y455198D01*
X240355Y456025D01*
X240450Y456500D01*
D02*
G37*
G36*
X340000D02*
X338051D01*
X338145Y456025D01*
X338698Y455198D01*
X339525Y454645D01*
X340000Y454551D01*
Y456500D01*
D02*
G37*
G36*
X341000Y459449D02*
Y457500D01*
X342950D01*
X342855Y457975D01*
X342302Y458802D01*
X341476Y459355D01*
X341000Y459449D01*
D02*
G37*
G36*
X196500Y467140D02*
X193500D01*
X192299Y466982D01*
X191180Y466518D01*
X190219Y465781D01*
X189482Y464820D01*
X189018Y463701D01*
X188860Y462500D01*
X189018Y461299D01*
X189482Y460180D01*
X190219Y459219D01*
X191180Y458482D01*
X192299Y458018D01*
X193500Y457860D01*
X196500D01*
X197701Y458018D01*
X198820Y458482D01*
X199781Y459219D01*
X200518Y460180D01*
X200982Y461299D01*
X201140Y462500D01*
X200982Y463701D01*
X200518Y464820D01*
X199781Y465781D01*
X198820Y466518D01*
X197701Y466982D01*
X196500Y467140D01*
D02*
G37*
G36*
X340000Y459449D02*
X339525Y459355D01*
X338698Y458802D01*
X338145Y457975D01*
X338051Y457500D01*
X340000D01*
Y459449D01*
D02*
G37*
G36*
X237500D02*
X237024Y459355D01*
X236198Y458802D01*
X235645Y457975D01*
X235550Y457500D01*
X237500D01*
Y459449D01*
D02*
G37*
G36*
X238500D02*
Y457500D01*
X240450D01*
X240355Y457975D01*
X239802Y458802D01*
X238976Y459355D01*
X238500Y459449D01*
D02*
G37*
G36*
X292000Y392449D02*
X291525Y392355D01*
X290698Y391802D01*
X290145Y390975D01*
X290051Y390500D01*
X292000D01*
Y392449D01*
D02*
G37*
G36*
X293000D02*
Y390500D01*
X294950D01*
X294855Y390975D01*
X294302Y391802D01*
X293476Y392355D01*
X293000Y392449D01*
D02*
G37*
G36*
X314949Y390000D02*
X313000D01*
Y388051D01*
X313475Y388145D01*
X314302Y388698D01*
X314855Y389525D01*
X314949Y390000D01*
D02*
G37*
G36*
X294950Y389500D02*
X293000D01*
Y387550D01*
X293476Y387645D01*
X294302Y388198D01*
X294855Y389024D01*
X294950Y389500D01*
D02*
G37*
G36*
X312000Y390000D02*
X310051D01*
X310145Y389525D01*
X310698Y388698D01*
X311525Y388145D01*
X312000Y388051D01*
Y390000D01*
D02*
G37*
G36*
X273000Y402641D02*
X272181Y402478D01*
X271486Y402014D01*
X271224Y401621D01*
X223000D01*
X222571Y401536D01*
X222207Y401293D01*
X222207Y401293D01*
X215035Y394122D01*
X188000D01*
X188000Y394122D01*
X187571Y394036D01*
X187207Y393793D01*
X186663Y393249D01*
X186319Y393478D01*
X185500Y393641D01*
X184681Y393478D01*
X183986Y393014D01*
X183522Y392319D01*
X183359Y391500D01*
X183522Y390681D01*
X183986Y389986D01*
X184681Y389522D01*
X185500Y389359D01*
X186319Y389522D01*
X187014Y389986D01*
X187478Y390681D01*
X187531Y390945D01*
X188465Y391879D01*
X215500D01*
X215500Y391878D01*
X215929Y391964D01*
X216293Y392207D01*
X223465Y399378D01*
X271224D01*
X271486Y398986D01*
X272181Y398522D01*
X273000Y398359D01*
X273819Y398522D01*
X274514Y398986D01*
X274978Y399681D01*
X275141Y400500D01*
X274978Y401319D01*
X274514Y402014D01*
X273819Y402478D01*
X273000Y402641D01*
D02*
G37*
G36*
X278500Y405500D02*
X276551D01*
X276645Y405024D01*
X277198Y404198D01*
X278025Y403645D01*
X278500Y403550D01*
Y405500D01*
D02*
G37*
G36*
X386500Y407140D02*
X383500D01*
X382299Y406982D01*
X381180Y406518D01*
X380219Y405781D01*
X379482Y404820D01*
X379018Y403701D01*
X378860Y402500D01*
X379018Y401299D01*
X379482Y400180D01*
X380219Y399219D01*
X381180Y398482D01*
X382299Y398018D01*
X382789Y397954D01*
Y397450D01*
X382195Y397371D01*
X380978Y396867D01*
X379934Y396066D01*
X379133Y395022D01*
X378629Y393805D01*
X378523Y393000D01*
X391477D01*
X391371Y393805D01*
X390867Y395022D01*
X390066Y396066D01*
X389022Y396867D01*
X387805Y397371D01*
X387211Y397450D01*
Y397954D01*
X387701Y398018D01*
X388820Y398482D01*
X389781Y399219D01*
X390518Y400180D01*
X390982Y401299D01*
X391140Y402500D01*
X390982Y403701D01*
X390518Y404820D01*
X389781Y405781D01*
X388820Y406518D01*
X387701Y406982D01*
X386500Y407140D01*
D02*
G37*
G36*
X312000Y392950D02*
X311525Y392855D01*
X310698Y392302D01*
X310145Y391476D01*
X310051Y391000D01*
X312000D01*
Y392950D01*
D02*
G37*
G36*
X313000D02*
Y391000D01*
X314949D01*
X314855Y391476D01*
X314302Y392302D01*
X313475Y392855D01*
X313000Y392950D01*
D02*
G37*
G36*
X292000Y389500D02*
X290051D01*
X290145Y389024D01*
X290698Y388198D01*
X291525Y387645D01*
X292000Y387550D01*
Y389500D01*
D02*
G37*
G36*
X368950Y383500D02*
X367000D01*
Y381551D01*
X367476Y381645D01*
X368302Y382198D01*
X368855Y383025D01*
X368950Y383500D01*
D02*
G37*
G36*
X196500Y391140D02*
X193500D01*
X192299Y390982D01*
X191180Y390518D01*
X190219Y389781D01*
X189482Y388820D01*
X189018Y387701D01*
X188860Y386500D01*
X189018Y385299D01*
X189482Y384180D01*
X190219Y383219D01*
X191180Y382482D01*
X192299Y382018D01*
X193500Y381860D01*
X196500D01*
X197701Y382018D01*
X198820Y382482D01*
X199781Y383219D01*
X200518Y384180D01*
X200982Y385299D01*
X201140Y386500D01*
X200982Y387701D01*
X200518Y388820D01*
X199781Y389781D01*
X198820Y390518D01*
X197701Y390982D01*
X196500Y391140D01*
D02*
G37*
G36*
X366000Y383500D02*
X364051D01*
X364145Y383025D01*
X364698Y382198D01*
X365525Y381645D01*
X366000Y381551D01*
Y383500D01*
D02*
G37*
G36*
X341500D02*
X339550D01*
X339645Y383025D01*
X340198Y382198D01*
X341024Y381645D01*
X341500Y381551D01*
Y383500D01*
D02*
G37*
G36*
X344449D02*
X342500D01*
Y381551D01*
X342975Y381645D01*
X343802Y382198D01*
X344355Y383025D01*
X344449Y383500D01*
D02*
G37*
G36*
X366000Y386450D02*
X365525Y386355D01*
X364698Y385802D01*
X364145Y384976D01*
X364051Y384500D01*
X366000D01*
Y386450D01*
D02*
G37*
G36*
X367000D02*
Y384500D01*
X368950D01*
X368855Y384976D01*
X368302Y385802D01*
X367476Y386355D01*
X367000Y386450D01*
D02*
G37*
G36*
X342500D02*
Y384500D01*
X344449D01*
X344355Y384976D01*
X343802Y385802D01*
X342975Y386355D01*
X342500Y386450D01*
D02*
G37*
G36*
X391477Y392000D02*
X378523D01*
X378629Y391195D01*
X379133Y389978D01*
X379934Y388934D01*
X380978Y388133D01*
X381852Y387771D01*
Y387229D01*
X380978Y386867D01*
X379934Y386066D01*
X379133Y385022D01*
X378629Y383805D01*
X378523Y383000D01*
X391477D01*
X391371Y383805D01*
X390867Y385022D01*
X390066Y386066D01*
X389022Y386867D01*
X388148Y387229D01*
Y387771D01*
X389022Y388133D01*
X390066Y388934D01*
X390867Y389978D01*
X391371Y391195D01*
X391477Y392000D01*
D02*
G37*
G36*
X341500Y386450D02*
X341024Y386355D01*
X340198Y385802D01*
X339645Y384976D01*
X339550Y384500D01*
X341500D01*
Y386450D01*
D02*
G37*
G36*
X223835Y426804D02*
X222907Y426682D01*
X222043Y426324D01*
X221301Y425754D01*
X220731Y425012D01*
X220373Y424148D01*
X220251Y423220D01*
X220373Y422293D01*
X220731Y421429D01*
X221301Y420687D01*
X222043Y420117D01*
X222907Y419759D01*
X223835Y419637D01*
X224762Y419759D01*
X225626Y420117D01*
X226368Y420687D01*
X226938Y421429D01*
X227296Y422293D01*
X227418Y423220D01*
X227296Y424148D01*
X226938Y425012D01*
X226368Y425754D01*
X225626Y426324D01*
X224762Y426682D01*
X223835Y426804D01*
D02*
G37*
G36*
X355165D02*
X354238Y426682D01*
X353374Y426324D01*
X352631Y425754D01*
X352062Y425012D01*
X351704Y424148D01*
X351582Y423220D01*
X351704Y422293D01*
X352062Y421429D01*
X352631Y420687D01*
X353374Y420117D01*
X354238Y419759D01*
X355165Y419637D01*
X356093Y419759D01*
X356957Y420117D01*
X357699Y420687D01*
X358269Y421429D01*
X358627Y422293D01*
X358749Y423220D01*
X358627Y424148D01*
X358269Y425012D01*
X357699Y425754D01*
X356957Y426324D01*
X356093Y426682D01*
X355165Y426804D01*
D02*
G37*
G36*
X386500Y427140D02*
X383500D01*
X382299Y426982D01*
X381180Y426518D01*
X380219Y425781D01*
X379482Y424820D01*
X379018Y423701D01*
X378860Y422500D01*
X379018Y421299D01*
X379482Y420180D01*
X380219Y419219D01*
X381180Y418482D01*
X382299Y418018D01*
X383500Y417860D01*
X386500D01*
X387701Y418018D01*
X388820Y418482D01*
X389781Y419219D01*
X390518Y420180D01*
X390982Y421299D01*
X391140Y422500D01*
X390982Y423701D01*
X390518Y424820D01*
X389781Y425781D01*
X388820Y426518D01*
X387701Y426982D01*
X386500Y427140D01*
D02*
G37*
G36*
X324000Y414127D02*
X323191Y414020D01*
X322437Y413708D01*
X321789Y413211D01*
X321736Y413141D01*
X301764D01*
X301711Y413211D01*
X301063Y413708D01*
X300309Y414020D01*
X299500Y414127D01*
X298691Y414020D01*
X297937Y413708D01*
X297289Y413211D01*
X296792Y412563D01*
X296480Y411809D01*
X296373Y411000D01*
X296480Y410191D01*
X296792Y409437D01*
X297289Y408789D01*
X297937Y408292D01*
X298691Y407980D01*
X299500Y407873D01*
X300309Y407980D01*
X301063Y408292D01*
X301711Y408789D01*
X301764Y408859D01*
X321736D01*
X321789Y408789D01*
X322437Y408292D01*
X323191Y407980D01*
X324000Y407873D01*
X324809Y407980D01*
X325563Y408292D01*
X326211Y408789D01*
X326708Y409437D01*
X327020Y410191D01*
X327127Y411000D01*
X327020Y411809D01*
X326708Y412563D01*
X326211Y413211D01*
X325563Y413708D01*
X324809Y414020D01*
X324000Y414127D01*
D02*
G37*
G36*
X196500Y427140D02*
X193500D01*
X192299Y426982D01*
X191180Y426518D01*
X190219Y425781D01*
X189482Y424820D01*
X189018Y423701D01*
X188860Y422500D01*
X189018Y421299D01*
X189482Y420180D01*
X190219Y419219D01*
X191180Y418482D01*
X192299Y418018D01*
X193500Y417860D01*
X196500D01*
X197701Y418018D01*
X198820Y418482D01*
X199781Y419219D01*
X200518Y420180D01*
X200982Y421299D01*
X201140Y422500D01*
X200982Y423701D01*
X200518Y424820D01*
X199781Y425781D01*
X198820Y426518D01*
X197701Y426982D01*
X196500Y427140D01*
D02*
G37*
G36*
X355165Y436646D02*
X354238Y436524D01*
X353374Y436166D01*
X352631Y435597D01*
X352062Y434855D01*
X351704Y433990D01*
X351582Y433063D01*
X351704Y432135D01*
X352062Y431271D01*
X352631Y430529D01*
X353374Y429960D01*
X354238Y429602D01*
X355165Y429480D01*
X356093Y429602D01*
X356957Y429960D01*
X357699Y430529D01*
X358269Y431271D01*
X358627Y432135D01*
X358749Y433063D01*
X358627Y433990D01*
X358269Y434855D01*
X357699Y435597D01*
X356957Y436166D01*
X356093Y436524D01*
X355165Y436646D01*
D02*
G37*
G36*
X286000Y430641D02*
X285181Y430478D01*
X284486Y430014D01*
X284224Y429622D01*
X279276D01*
X279014Y430014D01*
X278319Y430478D01*
X277500Y430641D01*
X276681Y430478D01*
X275986Y430014D01*
X275522Y429319D01*
X275359Y428500D01*
X275522Y427681D01*
X275986Y426986D01*
X276681Y426522D01*
X277500Y426359D01*
X278319Y426522D01*
X279014Y426986D01*
X279276Y427378D01*
X284224D01*
X284486Y426986D01*
X285181Y426522D01*
X286000Y426359D01*
X286819Y426522D01*
X287514Y426986D01*
X287978Y427681D01*
X288141Y428500D01*
X287978Y429319D01*
X287514Y430014D01*
X286819Y430478D01*
X286000Y430641D01*
D02*
G37*
G36*
X223835Y436646D02*
X222907Y436524D01*
X222043Y436166D01*
X221301Y435597D01*
X220731Y434855D01*
X220373Y433990D01*
X220251Y433063D01*
X220373Y432135D01*
X220731Y431271D01*
X221301Y430529D01*
X222043Y429960D01*
X222907Y429602D01*
X223835Y429480D01*
X224762Y429602D01*
X225626Y429960D01*
X226368Y430529D01*
X226938Y431271D01*
X227296Y432135D01*
X227418Y433063D01*
X227296Y433990D01*
X226938Y434855D01*
X226368Y435597D01*
X225626Y436166D01*
X224762Y436524D01*
X223835Y436646D01*
D02*
G37*
G36*
X196500Y437140D02*
X193500D01*
X192299Y436982D01*
X191180Y436518D01*
X190219Y435781D01*
X189482Y434820D01*
X189018Y433701D01*
X188860Y432500D01*
X189018Y431299D01*
X189482Y430180D01*
X190219Y429219D01*
X191180Y428482D01*
X192299Y428018D01*
X193500Y427860D01*
X196500D01*
X197701Y428018D01*
X198820Y428482D01*
X199781Y429219D01*
X200518Y430180D01*
X200982Y431299D01*
X201140Y432500D01*
X200982Y433701D01*
X200518Y434820D01*
X199781Y435781D01*
X198820Y436518D01*
X197701Y436982D01*
X196500Y437140D01*
D02*
G37*
G36*
X386500D02*
X383500D01*
X382299Y436982D01*
X381180Y436518D01*
X380219Y435781D01*
X379482Y434820D01*
X379018Y433701D01*
X378860Y432500D01*
X379018Y431299D01*
X379482Y430180D01*
X380219Y429219D01*
X381180Y428482D01*
X382299Y428018D01*
X383500Y427860D01*
X386500D01*
X387701Y428018D01*
X388820Y428482D01*
X389781Y429219D01*
X390518Y430180D01*
X390982Y431299D01*
X391140Y432500D01*
X390982Y433701D01*
X390518Y434820D01*
X389781Y435781D01*
X388820Y436518D01*
X387701Y436982D01*
X386500Y437140D01*
D02*
G37*
G36*
X241500Y414450D02*
Y412500D01*
X243449D01*
X243355Y412976D01*
X242802Y413802D01*
X241975Y414355D01*
X241500Y414450D01*
D02*
G37*
G36*
X278500Y408450D02*
X278025Y408355D01*
X277198Y407802D01*
X276645Y406976D01*
X276551Y406500D01*
X278500D01*
Y408450D01*
D02*
G37*
G36*
X279500D02*
Y406500D01*
X281450D01*
X281355Y406976D01*
X280802Y407802D01*
X279976Y408355D01*
X279500Y408450D01*
D02*
G37*
G36*
X365835Y417473D02*
X364598Y417351D01*
X363409Y416991D01*
X362313Y416405D01*
X361352Y415616D01*
X360564Y414656D01*
X359978Y413560D01*
X359617Y412371D01*
X359495Y411134D01*
X359617Y409897D01*
X359978Y408708D01*
X360564Y407612D01*
X361352Y406651D01*
X362313Y405863D01*
X363409Y405277D01*
X364598Y404916D01*
X365835Y404795D01*
X367071Y404916D01*
X368261Y405277D01*
X369356Y405863D01*
X370317Y406651D01*
X371106Y407612D01*
X371691Y408708D01*
X372052Y409897D01*
X372174Y411134D01*
X372052Y412371D01*
X371691Y413560D01*
X371106Y414656D01*
X370317Y415616D01*
X369356Y416405D01*
X368261Y416991D01*
X367071Y417351D01*
X365835Y417473D01*
D02*
G37*
G36*
X281450Y405500D02*
X279500D01*
Y403550D01*
X279976Y403645D01*
X280802Y404198D01*
X281355Y405024D01*
X281450Y405500D01*
D02*
G37*
G36*
X213165Y417473D02*
X211929Y417351D01*
X210739Y416991D01*
X209644Y416405D01*
X208683Y415616D01*
X207894Y414656D01*
X207309Y413560D01*
X206948Y412371D01*
X206826Y411134D01*
X206948Y409897D01*
X207309Y408708D01*
X207894Y407612D01*
X208683Y406651D01*
X209644Y405863D01*
X210739Y405277D01*
X211929Y404916D01*
X213165Y404795D01*
X214402Y404916D01*
X215591Y405277D01*
X216687Y405863D01*
X217648Y406651D01*
X218436Y407612D01*
X219022Y408708D01*
X219383Y409897D01*
X219504Y411134D01*
X219383Y412371D01*
X219022Y413560D01*
X218436Y414656D01*
X217648Y415616D01*
X216687Y416405D01*
X215591Y416991D01*
X214402Y417351D01*
X213165Y417473D01*
D02*
G37*
G36*
X243449Y411500D02*
X241500D01*
Y409551D01*
X241975Y409645D01*
X242802Y410198D01*
X243355Y411025D01*
X243449Y411500D01*
D02*
G37*
G36*
X240500Y414450D02*
X240024Y414355D01*
X239198Y413802D01*
X238645Y412976D01*
X238550Y412500D01*
X240500D01*
Y414450D01*
D02*
G37*
G36*
Y411500D02*
X238550D01*
X238645Y411025D01*
X239198Y410198D01*
X240024Y409645D01*
X240500Y409551D01*
Y411500D01*
D02*
G37*
G36*
X196500Y417140D02*
X193500D01*
X192299Y416982D01*
X191180Y416518D01*
X190219Y415781D01*
X189482Y414820D01*
X189018Y413701D01*
X188860Y412500D01*
X189018Y411299D01*
X189482Y410180D01*
X190219Y409219D01*
X191180Y408482D01*
X192299Y408018D01*
X193500Y407860D01*
X196500D01*
X197701Y408018D01*
X198820Y408482D01*
X199781Y409219D01*
X200518Y410180D01*
X200982Y411299D01*
X201140Y412500D01*
X200982Y413701D01*
X200518Y414820D01*
X199781Y415781D01*
X198820Y416518D01*
X197701Y416982D01*
X196500Y417140D01*
D02*
G37*
G36*
X379500Y412641D02*
X378681Y412478D01*
X377986Y412014D01*
X377522Y411319D01*
X377359Y410500D01*
X377451Y410037D01*
X364891Y397477D01*
X364514Y397514D01*
X363819Y397978D01*
X363000Y398141D01*
X362181Y397978D01*
X361486Y397514D01*
X361022Y396819D01*
X360859Y396000D01*
X361022Y395181D01*
X361486Y394486D01*
X362181Y394022D01*
X363000Y393859D01*
X363819Y394022D01*
X364514Y394486D01*
X364776Y394879D01*
X365000D01*
X365000Y394878D01*
X365429Y394964D01*
X365793Y395207D01*
X379037Y408451D01*
X379500Y408359D01*
X380319Y408522D01*
X381014Y408986D01*
X381478Y409681D01*
X381641Y410500D01*
X381478Y411319D01*
X381014Y412014D01*
X380319Y412478D01*
X379500Y412641D01*
D02*
G37*
%LPD*%
D24*
X277500Y428500D02*
X286000D01*
X286500D01*
X224000Y406500D02*
X267000D01*
X214000Y396500D02*
X224000Y406500D01*
X223000Y400500D02*
X273000D01*
X287500Y326000D02*
X298500D01*
X287500Y313500D02*
X298500D01*
X365000Y396000D02*
X379500Y410500D01*
X363000Y396000D02*
X365000D01*
X287000Y340500D02*
X298500D01*
X185500Y391500D02*
X186500D01*
X188000Y393000D01*
X180000Y396500D02*
X214000D01*
X188000Y393000D02*
X215500D01*
X223000Y400500D01*
X244500Y379500D02*
X260000D01*
X244000Y380000D02*
X244500Y379500D01*
X175000Y255500D02*
X400500D01*
X403500D01*
Y511500D01*
X175500D02*
X403500D01*
X175000Y255500D02*
X175500Y511500D01*
D25*
X299500Y411000D02*
X324000D01*
X323500Y410500D02*
X324000Y411000D01*
D26*
X355165Y440937D02*
D03*
Y423220D02*
D03*
Y433063D02*
D03*
X223835Y440937D02*
D03*
Y423220D02*
D03*
Y433063D02*
D03*
X354665Y317063D02*
D03*
Y334780D02*
D03*
Y324937D02*
D03*
X224835D02*
D03*
Y307221D02*
D03*
Y317063D02*
D03*
D27*
X355165Y450779D02*
D03*
X223835D02*
D03*
X354665Y307221D02*
D03*
X224835Y334780D02*
D03*
D28*
X365835Y462866D02*
D03*
Y411134D02*
D03*
X213165Y462866D02*
D03*
Y411134D02*
D03*
X365335Y295134D02*
D03*
Y346866D02*
D03*
X214165D02*
D03*
Y295134D02*
D03*
D29*
X195000Y472500D02*
D03*
Y346500D02*
D03*
Y336500D02*
D03*
Y326500D02*
D03*
Y316500D02*
D03*
Y306500D02*
D03*
Y296500D02*
D03*
Y356500D02*
D03*
Y366500D02*
D03*
Y376500D02*
D03*
Y386500D02*
D03*
Y452500D02*
D03*
Y442500D02*
D03*
Y432500D02*
D03*
Y422500D02*
D03*
Y412500D02*
D03*
Y402500D02*
D03*
Y462500D02*
D03*
X385000Y402500D02*
D03*
Y392500D02*
D03*
Y332500D02*
D03*
Y342500D02*
D03*
Y352500D02*
D03*
Y362500D02*
D03*
Y372500D02*
D03*
Y382500D02*
D03*
Y472500D02*
D03*
Y462500D02*
D03*
Y452500D02*
D03*
Y442500D02*
D03*
Y432500D02*
D03*
Y422500D02*
D03*
D30*
X294000Y434000D02*
D03*
X238000Y457000D02*
D03*
X279000Y406000D02*
D03*
X312500Y390500D02*
D03*
X292500Y390000D02*
D03*
X343500Y361500D02*
D03*
X342000Y384000D02*
D03*
X366500D02*
D03*
X216500Y378500D02*
D03*
X359500Y286500D02*
D03*
X341500Y299500D02*
D03*
X313000Y343000D02*
D03*
X241000Y412000D02*
D03*
X286000Y428500D02*
D03*
X277500D02*
D03*
X267000Y406500D02*
D03*
X273000Y400500D02*
D03*
X298500Y326000D02*
D03*
X287500Y313500D02*
D03*
X316500Y436500D02*
D03*
X262500D02*
D03*
X225500Y357500D02*
D03*
X385500Y296000D02*
D03*
X382000Y310500D02*
D03*
X322000Y366000D02*
D03*
X308500Y364000D02*
D03*
X317500Y322000D02*
D03*
X263500Y306500D02*
D03*
X379500Y410500D02*
D03*
X363000Y396000D02*
D03*
X298500Y313500D02*
D03*
X287500Y326000D02*
D03*
X298500Y340500D02*
D03*
X287000D02*
D03*
X185500Y391500D02*
D03*
X180000Y396500D02*
D03*
X260000Y379500D02*
D03*
X244000Y380000D02*
D03*
X224000Y470500D02*
D03*
X229500Y293500D02*
D03*
X237500Y295500D02*
D03*
X340500Y457000D02*
D03*
X354000Y470000D02*
D03*
D31*
X299500Y411000D02*
D03*
X324000D02*
D03*
M02*
